<svg width="3780" height="3780" xmlns="http://www.w3.org/2000/svg" xmlns:xlink="http://www.w3.org/1999/xlink" overflow="hidden"><g><rect x="0" y="0" width="3780" height="3780" fill="#FFFFFF" fill-opacity="0"/><path d="M947 1546C947 1332.82 1119.82 1160 1333 1160L2205 1160C2418.18 1160 2591 1332.82 2591 1546L2591 1546C2591 1759.18 2418.18 1932 2205 1932L1333 1932C1119.82 1932 947 1759.18 947 1546Z" stroke="#FFFFFF" stroke-width="8.00106" stroke-miterlimit="8" fill="#0D0D0D" fill-rule="evenodd"/><path d="M1868 1539C1868 1355.09 2017.09 1206 2201 1206 2384.91 1206 2534 1355.09 2534 1539 2534 1722.91 2384.91 1872 2201 1872 2017.09 1872 1868 1722.91 1868 1539Z" stroke="#FFFFFF" stroke-width="8.00106" stroke-miterlimit="8" fill="#FFFFFF" fill-rule="evenodd"/><path d="M680.182 1337C744.884 1337 800.403 1359.78 846.739 1405.35L783.497 1468.68C755.529 1441.93 721.925 1428.55 682.686 1428.55 656.388 1428.55 633.116 1434.3 612.87 1445.79 592.624 1457.29 576.971 1473.49 565.909 1494.39 554.847 1515.29 549.316 1539.33 549.316 1566.5 549.316 1593.67 554.847 1617.71 565.909 1638.61 576.971 1659.51 592.624 1675.71 612.87 1687.21 633.116 1698.7 656.388 1704.45 682.686 1704.45 703.558 1704.45 723.595 1700.69 742.797 1693.16 761.999 1685.64 778.697 1674.77 792.889 1660.56L853 1727.65C805.83 1773.22 748.85 1796 682.06 1796 634.89 1796 593.459 1786.39 557.768 1767.16 522.078 1747.93 494.527 1720.96 475.116 1686.27 455.705 1651.57 446 1611.65 446 1566.5 446 1521.35 455.914 1481.33 475.742 1446.42 495.571 1411.51 523.226 1384.55 558.708 1365.53 594.19 1346.51 634.681 1337 680.182 1337Z" stroke="#FFFFFF" stroke-width="8.00106" stroke-miterlimit="8" fill-rule="evenodd"/><path d="M2637.89 2161C2668.41 2161 2698.2 2165.39 2727.25 2174.17 2756.31 2182.95 2781.91 2195.28 2804.07 2211.16L2755.78 2283.27C2721.5 2259.45 2683.67 2247.53 2642.28 2247.53 2616.78 2247.53 2596.4 2251.71 2581.14 2260.07 2565.88 2268.43 2558.25 2279.72 2558.25 2293.93 2558.25 2307.73 2564.83 2318.39 2578 2325.91 2591.17 2333.44 2613.22 2339.08 2644.16 2342.84 2703.53 2349.53 2747.84 2364.27 2777.1 2387.05 2806.37 2409.83 2821 2441.08 2821 2480.79 2821 2508.39 2813.27 2532.74 2797.8 2553.85 2782.33 2574.96 2760.59 2591.26 2732.58 2602.76 2704.57 2614.25 2672.38 2620 2636.01 2620 2600.06 2620 2565.46 2614.57 2532.22 2603.7 2498.99 2592.83 2470.25 2577.57 2446 2557.92L2499.3 2483.3C2538.18 2513.82 2583.54 2529.08 2635.38 2529.08 2661.3 2529.08 2681.89 2524.69 2697.15 2515.91 2712.41 2507.13 2720.04 2495.22 2720.04 2480.17 2720.04 2465.95 2712.93 2454.88 2698.72 2446.93 2684.5 2438.99 2661.93 2433.35 2630.99 2430 2571.21 2423.32 2527.42 2409.31 2499.62 2387.99 2471.82 2366.67 2457.91 2336.16 2457.91 2296.44 2457.91 2269.69 2465.44 2246.07 2480.49 2225.59 2495.54 2205.1 2516.65 2189.22 2543.83 2177.93 2571 2166.64 2602.35 2161 2637.89 2161Z" stroke="#FFFFFF" stroke-width="8.00106" stroke-miterlimit="8" fill-rule="evenodd"/><path d="M53 1347 388.097 1347 388.097 1432.92 152.776 1432.92 152.776 1521.97 375.547 1521.97 375.547 1604.76 152.776 1604.76 152.776 1699.45 395 1699.45 395 1786 53 1786 53 1347Z" stroke="#FFFFFF" stroke-width="8.00106" stroke-miterlimit="8" fill-rule="evenodd"/><path d="M1696 2171 1787.97 2171 1937.5 2357.89 2087.03 2171 2179 2171 2179 2610 2077.02 2610 2077.02 2335.31 1948.14 2493.35 1928.12 2493.35 1797.98 2334.68 1797.98 2610 1696 2610 1696 2171Z" stroke="#FFFFFF" stroke-width="8.00106" stroke-miterlimit="8" fill-rule="evenodd"/><path d="M2273 2171 2376 2171 2376 2610 2273 2610 2273 2171Z" stroke="#FFFFFF" stroke-width="8.00106" stroke-miterlimit="8" fill-rule="evenodd"/><path d="M2850 2171 3221 2171 3221 2260.68 3086.66 2260.68 3086.66 2610 2983.71 2610 2983.71 2260.68 2850 2260.68 2850 2171Z" stroke="#FFFFFF" stroke-width="8.00106" stroke-miterlimit="8" fill-rule="evenodd"/><path d="M3421.79 2171 3531.46 2171 3727 2610 3616.07 2610 3583.48 2530.98 3367.27 2530.98 3334.68 2610 3225 2610 3421.79 2171ZM3476.31 2269.46 3404.24 2442.55 3547.13 2442.55 3476.31 2269.46Z" stroke="#FFFFFF" stroke-width="8.00106" stroke-miterlimit="8" fill-rule="evenodd"/><path d="M1225.5 1380C1264.97 1380 1299.63 1387.96 1329.49 1403.87 1359.35 1419.78 1382.4 1442.24 1398.64 1471.27 1414.88 1500.29 1423 1534.03 1423 1572.5 1423 1610.96 1414.88 1644.71 1398.64 1673.73 1382.4 1702.76 1359.35 1725.22 1329.49 1741.13 1299.63 1757.04 1264.97 1765 1225.5 1765 1186.03 1765 1151.37 1757.04 1121.51 1741.13 1091.65 1725.22 1068.6 1702.76 1052.36 1673.73 1036.12 1644.71 1028 1610.96 1028 1572.5 1028 1534.03 1036.12 1500.29 1052.36 1471.27 1068.6 1442.24 1091.65 1419.78 1121.51 1403.87 1151.37 1387.96 1186.03 1380 1225.5 1380ZM1225.5 1456.58C1203.5 1456.58 1184.11 1461.39 1167.35 1471 1150.59 1480.62 1137.58 1494.17 1128.32 1511.66 1119.07 1529.14 1114.44 1549.42 1114.44 1572.5 1114.44 1595.58 1119.07 1615.86 1128.32 1633.34 1137.58 1650.83 1150.59 1664.38 1167.35 1673.99 1184.11 1683.61 1203.5 1688.42 1225.5 1688.42 1247.5 1688.42 1266.97 1683.61 1283.91 1673.99 1300.85 1664.38 1313.95 1650.83 1323.2 1633.34 1332.46 1615.86 1337.08 1595.58 1337.08 1572.5 1337.08 1549.42 1332.46 1529.14 1323.2 1511.66 1313.95 1494.17 1300.85 1480.62 1283.91 1471 1266.97 1461.39 1247.5 1456.58 1225.5 1456.58Z" stroke="#FFFFFF" stroke-width="8.00106" stroke-miterlimit="8" fill="#FFFFFF" fill-rule="evenodd"/><path d="M1483 1389 1560.15 1389 1726.51 1617.06 1725.46 1519.02 1725.46 1389 1811 1389 1811 1756 1733.85 1756 1567.49 1528.98 1568.54 1628.07 1568.54 1756 1483 1756 1483 1389Z" stroke="#FFFFFF" stroke-width="8.00106" stroke-miterlimit="8" fill="#FFFFFF" fill-rule="evenodd"/></g></svg>